<mxfile host="app.diagrams.net" agent="Mozilla/5.0 (Windows NT 10.0; Win64; x64) AppleWebKit/537.36 (KHTML, like Gecko) Chrome/127.0.0.0 Safari/537.36" version="24.7.6">
  <diagram name="Page-1" id="TLoSAseuKL5pf1A9Ex6X">
    <mxGraphModel dx="1134" dy="736" grid="1" gridSize="10" guides="1" tooltips="1" connect="1" arrows="1" fold="1" page="1" pageScale="1" pageWidth="850" pageHeight="1100" math="0" shadow="0">
      <root>
        <mxCell id="0" />
        <mxCell id="1" parent="0" />
        <mxCell id="tNT7gsSXJeu2RwCHTV_Y-1" value="" style="shape=trapezoid;perimeter=trapezoidPerimeter;whiteSpace=wrap;html=1;fixedSize=1;rotation=90;" vertex="1" parent="1">
          <mxGeometry x="70" y="230" width="220" height="110" as="geometry" />
        </mxCell>
        <mxCell id="tNT7gsSXJeu2RwCHTV_Y-2" value="&lt;b&gt;&lt;font style=&quot;font-size: 29px;&quot;&gt;PC&lt;/font&gt;&lt;/b&gt;" style="text;html=1;align=center;verticalAlign=middle;resizable=0;points=[];autosize=1;strokeColor=none;fillColor=#f5f5f5;fontColor=#333333;" vertex="1" parent="1">
          <mxGeometry x="150" y="260" width="60" height="50" as="geometry" />
        </mxCell>
        <mxCell id="tNT7gsSXJeu2RwCHTV_Y-4" value="" style="rounded=0;whiteSpace=wrap;html=1;" vertex="1" parent="1">
          <mxGeometry x="270" y="390" width="175" height="110" as="geometry" />
        </mxCell>
        <mxCell id="tNT7gsSXJeu2RwCHTV_Y-5" value="&lt;b style=&quot;forced-color-adjust: none; color: rgb(0, 0, 0); font-family: Helvetica; font-size: 12px; font-style: normal; font-variant-ligatures: normal; font-variant-caps: normal; letter-spacing: normal; orphans: 2; text-indent: 0px; text-transform: none; widows: 2; word-spacing: 0px; -webkit-text-stroke-width: 0px; white-space: normal; background-color: rgb(251, 251, 251); text-decoration-thickness: initial; text-decoration-style: initial; text-decoration-color: initial;&quot;&gt;&lt;font style=&quot;forced-color-adjust: none; font-size: 31px;&quot;&gt;IMEM&lt;/font&gt;&lt;/b&gt;" style="text;whiteSpace=wrap;html=1;fillColor=#f5f5f5;fontColor=#333333;strokeColor=none;align=center;" vertex="1" parent="1">
          <mxGeometry x="302.5" y="415" width="110" height="60" as="geometry" />
        </mxCell>
        <mxCell id="tNT7gsSXJeu2RwCHTV_Y-7" value="" style="shape=trapezoid;perimeter=trapezoidPerimeter;whiteSpace=wrap;html=1;fixedSize=1;rotation=90;" vertex="1" parent="1">
          <mxGeometry x="429.5" y="220.82" width="145" height="60" as="geometry" />
        </mxCell>
        <mxCell id="tNT7gsSXJeu2RwCHTV_Y-8" value="" style="shape=trapezoid;perimeter=trapezoidPerimeter;whiteSpace=wrap;html=1;fixedSize=1;rotation=90;" vertex="1" parent="1">
          <mxGeometry x="501" y="350.82" width="145" height="60" as="geometry" />
        </mxCell>
        <mxCell id="tNT7gsSXJeu2RwCHTV_Y-10" value="" style="endArrow=none;html=1;rounded=0;" edge="1" parent="1" source="tNT7gsSXJeu2RwCHTV_Y-19">
          <mxGeometry width="50" height="50" relative="1" as="geometry">
            <mxPoint x="235" y="280" as="sourcePoint" />
            <mxPoint x="360" y="280" as="targetPoint" />
          </mxGeometry>
        </mxCell>
        <mxCell id="tNT7gsSXJeu2RwCHTV_Y-18" value="" style="endArrow=none;html=1;rounded=0;" edge="1" parent="1" source="tNT7gsSXJeu2RwCHTV_Y-3">
          <mxGeometry width="50" height="50" relative="1" as="geometry">
            <mxPoint x="360" y="280" as="sourcePoint" />
            <mxPoint x="359.71" y="200" as="targetPoint" />
          </mxGeometry>
        </mxCell>
        <mxCell id="tNT7gsSXJeu2RwCHTV_Y-20" value="" style="endArrow=none;html=1;rounded=0;" edge="1" parent="1" target="tNT7gsSXJeu2RwCHTV_Y-19">
          <mxGeometry width="50" height="50" relative="1" as="geometry">
            <mxPoint x="235" y="280" as="sourcePoint" />
            <mxPoint x="360" y="280" as="targetPoint" />
          </mxGeometry>
        </mxCell>
        <mxCell id="tNT7gsSXJeu2RwCHTV_Y-19" value="" style="ellipse;whiteSpace=wrap;html=1;fillColor=#000000;" vertex="1" parent="1">
          <mxGeometry x="358" y="279" width="4" height="3" as="geometry" />
        </mxCell>
        <mxCell id="tNT7gsSXJeu2RwCHTV_Y-21" value="" style="endArrow=none;html=1;rounded=0;" edge="1" parent="1" target="tNT7gsSXJeu2RwCHTV_Y-3">
          <mxGeometry width="50" height="50" relative="1" as="geometry">
            <mxPoint x="360" y="280" as="sourcePoint" />
            <mxPoint x="359.71" y="200" as="targetPoint" />
          </mxGeometry>
        </mxCell>
        <mxCell id="tNT7gsSXJeu2RwCHTV_Y-3" value="&lt;font style=&quot;font-size: 38px;&quot;&gt;+&lt;/font&gt;" style="ellipse;whiteSpace=wrap;html=1;aspect=fixed;" vertex="1" parent="1">
          <mxGeometry x="335" y="182.5" width="50" height="50" as="geometry" />
        </mxCell>
        <mxCell id="tNT7gsSXJeu2RwCHTV_Y-22" value="" style="endArrow=classic;html=1;rounded=0;" edge="1" parent="1">
          <mxGeometry width="50" height="50" relative="1" as="geometry">
            <mxPoint x="290" y="208" as="sourcePoint" />
            <mxPoint x="335" y="208.07999999999998" as="targetPoint" />
          </mxGeometry>
        </mxCell>
        <mxCell id="tNT7gsSXJeu2RwCHTV_Y-23" value="" style="endArrow=none;html=1;rounded=0;" edge="1" parent="1">
          <mxGeometry width="50" height="50" relative="1" as="geometry">
            <mxPoint x="295" y="213" as="sourcePoint" />
            <mxPoint x="305" y="203" as="targetPoint" />
          </mxGeometry>
        </mxCell>
        <mxCell id="tNT7gsSXJeu2RwCHTV_Y-24" value="" style="endArrow=none;html=1;rounded=0;" edge="1" parent="1">
          <mxGeometry width="50" height="50" relative="1" as="geometry">
            <mxPoint x="80" y="237.5" as="sourcePoint" />
            <mxPoint x="80" y="150" as="targetPoint" />
          </mxGeometry>
        </mxCell>
        <mxCell id="tNT7gsSXJeu2RwCHTV_Y-25" value="" style="endArrow=none;html=1;rounded=0;" edge="1" parent="1">
          <mxGeometry width="50" height="50" relative="1" as="geometry">
            <mxPoint x="430" y="210" as="sourcePoint" />
            <mxPoint x="430" y="150" as="targetPoint" />
          </mxGeometry>
        </mxCell>
        <mxCell id="tNT7gsSXJeu2RwCHTV_Y-27" value="" style="endArrow=none;html=1;rounded=0;" edge="1" parent="1">
          <mxGeometry width="50" height="50" relative="1" as="geometry">
            <mxPoint x="80" y="150" as="sourcePoint" />
            <mxPoint x="430" y="150" as="targetPoint" />
          </mxGeometry>
        </mxCell>
        <mxCell id="tNT7gsSXJeu2RwCHTV_Y-28" value="" style="endArrow=none;html=1;rounded=0;" edge="1" parent="1">
          <mxGeometry width="50" height="50" relative="1" as="geometry">
            <mxPoint x="385" y="210.26" as="sourcePoint" />
            <mxPoint x="430" y="210" as="targetPoint" />
          </mxGeometry>
        </mxCell>
        <mxCell id="tNT7gsSXJeu2RwCHTV_Y-30" value="" style="endArrow=classic;html=1;rounded=0;" edge="1" parent="1">
          <mxGeometry width="50" height="50" relative="1" as="geometry">
            <mxPoint x="80" y="237.5" as="sourcePoint" />
            <mxPoint x="125" y="237.57999999999998" as="targetPoint" />
          </mxGeometry>
        </mxCell>
        <mxCell id="tNT7gsSXJeu2RwCHTV_Y-31" value="" style="endArrow=classic;html=1;rounded=0;" edge="1" parent="1">
          <mxGeometry width="50" height="50" relative="1" as="geometry">
            <mxPoint x="60" y="280" as="sourcePoint" />
            <mxPoint x="125" y="279.08" as="targetPoint" />
          </mxGeometry>
        </mxCell>
        <mxCell id="tNT7gsSXJeu2RwCHTV_Y-32" value="" style="endArrow=classic;html=1;rounded=0;" edge="1" parent="1">
          <mxGeometry width="50" height="50" relative="1" as="geometry">
            <mxPoint x="30" y="320" as="sourcePoint" />
            <mxPoint x="125" y="320.08" as="targetPoint" />
          </mxGeometry>
        </mxCell>
        <mxCell id="tNT7gsSXJeu2RwCHTV_Y-33" value="" style="endArrow=classic;html=1;rounded=0;" edge="1" parent="1">
          <mxGeometry width="50" height="50" relative="1" as="geometry">
            <mxPoint x="80" y="360" as="sourcePoint" />
            <mxPoint x="125" y="360.08" as="targetPoint" />
          </mxGeometry>
        </mxCell>
        <mxCell id="tNT7gsSXJeu2RwCHTV_Y-34" value="" style="endArrow=none;html=1;rounded=0;" edge="1" parent="1">
          <mxGeometry width="50" height="50" relative="1" as="geometry">
            <mxPoint x="60" y="279" as="sourcePoint" />
            <mxPoint x="60" y="120" as="targetPoint" />
          </mxGeometry>
        </mxCell>
        <mxCell id="tNT7gsSXJeu2RwCHTV_Y-35" value="" style="endArrow=none;html=1;rounded=0;" edge="1" parent="1">
          <mxGeometry width="50" height="50" relative="1" as="geometry">
            <mxPoint x="60" y="120" as="sourcePoint" />
            <mxPoint x="560" y="120" as="targetPoint" />
          </mxGeometry>
        </mxCell>
        <mxCell id="tNT7gsSXJeu2RwCHTV_Y-36" value="" style="endArrow=none;html=1;rounded=0;" edge="1" parent="1">
          <mxGeometry width="50" height="50" relative="1" as="geometry">
            <mxPoint x="560" y="249.5" as="sourcePoint" />
            <mxPoint x="560" y="120" as="targetPoint" />
          </mxGeometry>
        </mxCell>
        <mxCell id="tNT7gsSXJeu2RwCHTV_Y-37" value="" style="endArrow=none;html=1;rounded=0;" edge="1" parent="1">
          <mxGeometry width="50" height="50" relative="1" as="geometry">
            <mxPoint x="530" y="250.4" as="sourcePoint" />
            <mxPoint x="560" y="250" as="targetPoint" />
          </mxGeometry>
        </mxCell>
        <mxCell id="tNT7gsSXJeu2RwCHTV_Y-38" value="" style="endArrow=classic;html=1;rounded=0;" edge="1" parent="1">
          <mxGeometry width="50" height="50" relative="1" as="geometry">
            <mxPoint x="427.5" y="225.82" as="sourcePoint" />
            <mxPoint x="472.5" y="225.89999999999998" as="targetPoint" />
          </mxGeometry>
        </mxCell>
        <mxCell id="tNT7gsSXJeu2RwCHTV_Y-39" value="" style="endArrow=classic;html=1;rounded=0;" edge="1" parent="1">
          <mxGeometry width="50" height="50" relative="1" as="geometry">
            <mxPoint x="427.5" y="280.82" as="sourcePoint" />
            <mxPoint x="472.5" y="280.9" as="targetPoint" />
          </mxGeometry>
        </mxCell>
        <mxCell id="tNT7gsSXJeu2RwCHTV_Y-40" value="" style="endArrow=classic;html=1;rounded=0;" edge="1" parent="1">
          <mxGeometry width="50" height="50" relative="1" as="geometry">
            <mxPoint x="500" y="355.13" as="sourcePoint" />
            <mxPoint x="545" y="355.21" as="targetPoint" />
          </mxGeometry>
        </mxCell>
        <mxCell id="tNT7gsSXJeu2RwCHTV_Y-41" value="" style="endArrow=classic;html=1;rounded=0;" edge="1" parent="1">
          <mxGeometry width="50" height="50" relative="1" as="geometry">
            <mxPoint x="500" y="410.13" as="sourcePoint" />
            <mxPoint x="545" y="410.21" as="targetPoint" />
          </mxGeometry>
        </mxCell>
        <mxCell id="tNT7gsSXJeu2RwCHTV_Y-42" value="" style="endArrow=none;html=1;rounded=0;" edge="1" parent="1">
          <mxGeometry width="50" height="50" relative="1" as="geometry">
            <mxPoint x="604" y="381.82" as="sourcePoint" />
            <mxPoint x="651" y="381.82" as="targetPoint" />
          </mxGeometry>
        </mxCell>
        <mxCell id="tNT7gsSXJeu2RwCHTV_Y-43" value="" style="endArrow=none;html=1;rounded=0;" edge="1" parent="1">
          <mxGeometry width="50" height="50" relative="1" as="geometry">
            <mxPoint x="651" y="381.82" as="sourcePoint" />
            <mxPoint x="650" y="100" as="targetPoint" />
          </mxGeometry>
        </mxCell>
        <mxCell id="tNT7gsSXJeu2RwCHTV_Y-44" value="" style="endArrow=none;html=1;rounded=0;" edge="1" parent="1">
          <mxGeometry width="50" height="50" relative="1" as="geometry">
            <mxPoint x="30" y="100" as="sourcePoint" />
            <mxPoint x="650" y="100" as="targetPoint" />
          </mxGeometry>
        </mxCell>
        <mxCell id="tNT7gsSXJeu2RwCHTV_Y-45" value="" style="endArrow=none;html=1;rounded=0;" edge="1" parent="1">
          <mxGeometry width="50" height="50" relative="1" as="geometry">
            <mxPoint x="30" y="320" as="sourcePoint" />
            <mxPoint x="30" y="101" as="targetPoint" />
          </mxGeometry>
        </mxCell>
        <mxCell id="tNT7gsSXJeu2RwCHTV_Y-46" value="" style="endArrow=none;html=1;rounded=0;" edge="1" parent="1">
          <mxGeometry width="50" height="50" relative="1" as="geometry">
            <mxPoint x="88" y="365" as="sourcePoint" />
            <mxPoint x="98" y="355" as="targetPoint" />
            <Array as="points">
              <mxPoint x="88" y="365" />
            </Array>
          </mxGeometry>
        </mxCell>
        <mxCell id="tNT7gsSXJeu2RwCHTV_Y-51" value="" style="endArrow=none;html=1;rounded=0;exitX=0.514;exitY=0;exitDx=0;exitDy=0;exitPerimeter=0;" edge="1" parent="1" source="tNT7gsSXJeu2RwCHTV_Y-4">
          <mxGeometry width="50" height="50" relative="1" as="geometry">
            <mxPoint x="360" y="380" as="sourcePoint" />
            <mxPoint x="359.74" y="282" as="targetPoint" />
          </mxGeometry>
        </mxCell>
        <mxCell id="tNT7gsSXJeu2RwCHTV_Y-53" value="" style="endArrow=none;html=1;rounded=0;exitX=0.969;exitY=0.685;exitDx=0;exitDy=0;exitPerimeter=0;" edge="1" parent="1" source="tNT7gsSXJeu2RwCHTV_Y-1">
          <mxGeometry width="50" height="50" relative="1" as="geometry">
            <mxPoint x="150" y="390" as="sourcePoint" />
            <mxPoint x="180" y="360" as="targetPoint" />
          </mxGeometry>
        </mxCell>
        <mxCell id="tNT7gsSXJeu2RwCHTV_Y-54" value="" style="endArrow=none;html=1;rounded=0;exitX=1;exitY=0.25;exitDx=0;exitDy=0;" edge="1" parent="1" source="tNT7gsSXJeu2RwCHTV_Y-1">
          <mxGeometry width="50" height="50" relative="1" as="geometry">
            <mxPoint x="200" y="390" as="sourcePoint" />
            <mxPoint x="180" y="360" as="targetPoint" />
          </mxGeometry>
        </mxCell>
        <mxCell id="tNT7gsSXJeu2RwCHTV_Y-55" value="" style="endArrow=none;html=1;rounded=0;" edge="1" parent="1">
          <mxGeometry width="50" height="50" relative="1" as="geometry">
            <mxPoint x="179.75" y="432" as="sourcePoint" />
            <mxPoint x="179.75" y="385" as="targetPoint" />
          </mxGeometry>
        </mxCell>
        <mxCell id="tNT7gsSXJeu2RwCHTV_Y-56" value="" style="endArrow=none;html=1;rounded=0;" edge="1" parent="1">
          <mxGeometry width="50" height="50" relative="1" as="geometry">
            <mxPoint x="362" y="587" as="sourcePoint" />
            <mxPoint x="485" y="588" as="targetPoint" />
          </mxGeometry>
        </mxCell>
        <mxCell id="tNT7gsSXJeu2RwCHTV_Y-57" value="" style="endArrow=none;html=1;rounded=0;" edge="1" parent="1">
          <mxGeometry width="50" height="50" relative="1" as="geometry">
            <mxPoint x="362" y="587.5" as="sourcePoint" />
            <mxPoint x="362" y="500" as="targetPoint" />
          </mxGeometry>
        </mxCell>
        <mxCell id="tNT7gsSXJeu2RwCHTV_Y-58" value="" style="endArrow=none;html=1;rounded=0;" edge="1" parent="1">
          <mxGeometry width="50" height="50" relative="1" as="geometry">
            <mxPoint x="402.5" y="592" as="sourcePoint" />
            <mxPoint x="412.5" y="582" as="targetPoint" />
            <Array as="points">
              <mxPoint x="402.5" y="592" />
            </Array>
          </mxGeometry>
        </mxCell>
      </root>
    </mxGraphModel>
  </diagram>
</mxfile>
